<svg xmlns="http://www.w3.org/2000/svg" width="32" height="32" viewBox="0 0 32 32">
  <g id="bottom_my" transform="translate(-350 -8)">
    <rect id="사각형_16785" data-name="사각형 16785" width="32" height="32" transform="translate(350 8)" fill="none"/>
    <g id="그룹_37191" data-name="그룹 37191" transform="translate(352.143 10)">
      <path id="패스_39035" data-name="패스 39035" d="M20.533,20.383l-.182-.624c-.609-2.092-1.661-3.109-3.216-3.109H9.36c-1.555,0-2.607,1.017-3.216,3.109l-.182.624L4.714,20.02,4.9,19.4C5.869,16.052,7.86,15.35,9.36,15.35h7.775c1.5,0,3.491.7,4.464,4.046l.182.624Z" transform="translate(0.684 2.695)"/>
      <path id="타원_684" data-name="타원 684" d="M3.652-.65a4.3,4.3,0,1,1-4.3,4.3A4.307,4.307,0,0,1,3.652-.65Zm0,7.3a3,3,0,1,0-3-3A3.006,3.006,0,0,0,3.652,6.654Z" transform="translate(10.204 8.261)"/>
      <path id="타원_685" data-name="타원 685" d="M12-.65a12.65,12.65,0,0,1,8.945,21.595A12.65,12.65,0,0,1,3.055,3.055,12.567,12.567,0,0,1,12-.65Zm0,24A11.35,11.35,0,1,0,.65,12,11.363,11.363,0,0,0,12,23.35Z" transform="translate(1.857 2)"/>
    </g>
  </g>
</svg>
