<svg xmlns="http://www.w3.org/2000/svg" width="32" height="32" viewBox="0 0 32 32">
  <g id="bottom_cate" transform="translate(-262 -8)">
    <rect id="사각형_16784" data-name="사각형 16784" width="32" height="32" transform="translate(262 8)" fill="none"/>
    <path id="grid_view_24dp_FILL0_wght200_GRAD0_opsz24" d="M161.284-791.011a1.233,1.233,0,0,1-.9-.384,1.233,1.233,0,0,1-.384-.9v-6.421a1.233,1.233,0,0,1,.384-.9,1.233,1.233,0,0,1,.9-.384h6.421a1.233,1.233,0,0,1,.9.384,1.233,1.233,0,0,1,.384.9v6.421a1.233,1.233,0,0,1-.384.9,1.233,1.233,0,0,1-.9.384Zm0,11.558a1.233,1.233,0,0,1-.9-.384,1.233,1.233,0,0,1-.384-.9v-6.421a1.233,1.233,0,0,1,.384-.9,1.233,1.233,0,0,1,.9-.384h6.421a1.233,1.233,0,0,1,.9.384,1.233,1.233,0,0,1,.384.9v6.421a1.233,1.233,0,0,1-.384.9,1.233,1.233,0,0,1-.9.384Zm11.558-11.558a1.233,1.233,0,0,1-.9-.384,1.233,1.233,0,0,1-.384-.9v-6.421a1.233,1.233,0,0,1,.384-.9,1.233,1.233,0,0,1,.9-.384h6.421a1.233,1.233,0,0,1,.9.384,1.233,1.233,0,0,1,.384.9v6.421a1.233,1.233,0,0,1-.384.9,1.233,1.233,0,0,1-.9.384Zm0,11.558a1.233,1.233,0,0,1-.9-.384,1.233,1.233,0,0,1-.384-.9v-6.421a1.233,1.233,0,0,1,.384-.9,1.233,1.233,0,0,1,.9-.384h6.421a1.233,1.233,0,0,1,.9.384,1.233,1.233,0,0,1,.384.9v6.421a1.233,1.233,0,0,1-.384.9,1.233,1.233,0,0,1-.9.384Zm-11.558-12.842h6.421v-6.421h-6.421Zm11.558,0h6.421v-6.421h-6.421Zm0,11.558h6.421v-6.421h-6.421Zm-11.558,0h6.421v-6.421h-6.421ZM172.842-792.295ZM172.842-787.158ZM167.705-787.158ZM167.705-792.295Z" transform="translate(108 814)"/>
  </g>
</svg>
