<svg xmlns="http://www.w3.org/2000/svg" width="32" height="32" viewBox="0 0 32 32">
  <g id="bottom_home" transform="translate(-110 -8)">
    <rect id="사각형_16781" data-name="사각형 16781" width="32" height="32" transform="translate(110 8)" fill="none"/>
    <path id="storefront_24dp_FILL0_wght200_GRAD0_opsz24" d="M100.561-798.75a1.956,1.956,0,0,1-1.441-.578,1.956,1.956,0,0,1-.578-1.441V-810.8a3.373,3.373,0,0,1-1.158-1.531,2.932,2.932,0,0,1-.016-2.022l1.217-4.01a2.438,2.438,0,0,1,.806-1.2,2.167,2.167,0,0,1,1.376-.435h16.75a2.25,2.25,0,0,1,1.373.408,2.325,2.325,0,0,1,.81,1.179l1.264,4.058a2.98,2.98,0,0,1-.016,2.038,3.456,3.456,0,0,1-1.158,1.563v9.985a1.956,1.956,0,0,1-.578,1.441,1.955,1.955,0,0,1-1.441.578Zm11.356-12.5a2.271,2.271,0,0,0,1.8-.674,1.73,1.73,0,0,0,.5-1.393l-.832-5.433h-3.591v5.25a2.226,2.226,0,0,0,.63,1.585A1.992,1.992,0,0,0,111.917-811.25Zm-5.625,0a2.127,2.127,0,0,0,1.629-.665,2.242,2.242,0,0,0,.621-1.585v-5.25h-3.591l-.832,5.529a1.693,1.693,0,0,0,.508,1.277A2.056,2.056,0,0,0,106.292-811.25Zm-5.563,0a1.94,1.94,0,0,0,1.405-.562,2.479,2.479,0,0,0,.72-1.4l.784-5.534h-2.87a1.057,1.057,0,0,0-.649.18,1.078,1.078,0,0,0-.361.541L98.6-814.082a2.221,2.221,0,0,0,.263,1.909A2.021,2.021,0,0,0,100.73-811.25Zm16.875,0a2.146,2.146,0,0,0,1.793-.875,2.041,2.041,0,0,0,.332-1.957l-1.216-4a.944.944,0,0,0-.361-.517,1.178,1.178,0,0,0-.649-.156H114.7l.784,5.534a2.479,2.479,0,0,0,.72,1.4A1.94,1.94,0,0,0,117.6-811.25ZM100.561-800h17.212a.75.75,0,0,0,.553-.216.75.75,0,0,0,.216-.553v-9.389a2.9,2.9,0,0,1-.48.123,2.918,2.918,0,0,1-.458.036,3.2,3.2,0,0,1-1.484-.329,3.85,3.85,0,0,1-1.218-1.05,3.879,3.879,0,0,1-1.209.995,3.662,3.662,0,0,1-1.748.385,3.056,3.056,0,0,1-1.422-.348,5.59,5.59,0,0,1-1.357-1.031,4.336,4.336,0,0,1-1.391,1.031,3.506,3.506,0,0,1-1.456.348,4.065,4.065,0,0,1-1.532-.3,3.014,3.014,0,0,1-1.309-1.079,4.528,4.528,0,0,1-1.609,1.15,3.763,3.763,0,0,1-1.141.23,3.068,3.068,0,0,1-.465-.036,2.508,2.508,0,0,1-.473-.123v9.389a.75.75,0,0,0,.216.553A.75.75,0,0,0,100.561-800Zm17.212,0h0Z" transform="translate(17.13 833.291)"/>
  </g>
</svg>
