<svg xmlns="http://www.w3.org/2000/svg" width="40" height="40" viewBox="0 0 40 40">
  <g id="cate_ic03" transform="translate(0)">
    <rect id="사각형_16829" data-name="사각형 16829" width="40" height="40" transform="translate(0)" fill="none"/>
    <g id="그룹_37351" data-name="그룹 37351" transform="translate(9.461 12.345)">
      <path id="패스_39064" data-name="패스 39064" d="M24.533,3.38H8.9a.346.346,0,0,1-.333-.441L9.224.651A.346.346,0,0,1,9.557.4H23.926a.346.346,0,0,1,.335.257l.607,2.287a.346.346,0,0,1-.335.435ZM9.363,2.688H24.083L23.66,1.093H9.818Z" transform="translate(-5.919 -0.4)"/>
      <path id="패스_39065" data-name="패스 39065" d="M7.465,11.871a.346.346,0,0,1,0-.692h0a7.145,7.145,0,0,0,1.992-.372,3.1,3.1,0,0,0,2.274-2.282.346.346,0,1,1,.679.136,3.793,3.793,0,0,1-2.742,2.806,7.728,7.728,0,0,1-2.193.4Z" transform="translate(-4.945 -5.708)"/>
      <path id="선_218" data-name="선 218" d="M8.356.813H8.327L-.283.091A.346.346,0,0,1-.6-.283.346.346,0,0,1-.225-.6l8.609.72a.346.346,0,0,1-.028.691Z" transform="translate(1.561 12.086)"/>
      <path id="패스_39066" data-name="패스 39066" d="M9.91,21.265H9.879L.715,20.443a.346.346,0,0,1-.308-.417L3.047,7.743a.346.346,0,1,1,.677.145l-2.557,11.9,8.453.758.694-4.3v-.006a.81.81,0,0,1,1.543,0l.8,4.308,8.546-.759-2.528-11.9a.346.346,0,0,1,.677-.144l2.609,12.282a.346.346,0,0,1-.308.417l-9.249.821a.346.346,0,0,1-.371-.282l-.853-4.6a.287.287,0,0,0-.189,0l-.74,4.589A.346.346,0,0,1,9.91,21.265Z" transform="translate(-0.4 -5.183)"/>
      <path id="패스_39067" data-name="패스 39067" d="M48.962,11.871h0a7.794,7.794,0,0,1-2.2-.4A3.8,3.8,0,0,1,44,8.661a.346.346,0,1,1,.679-.136c.517,2.577,4.249,2.654,4.287,2.654a.346.346,0,0,1,0,.692Z" transform="translate(-29.891 -5.708)"/>
      <path id="선_219" data-name="선 219" d="M-.254.813A.346.346,0,0,1-.6.495.346.346,0,0,1-.282.122l8.8-.72a.346.346,0,0,1,.373.317A.346.346,0,0,1,8.57.091l-8.8.72Z" transform="translate(11.772 12.086)"/>
      <path id="선_220" data-name="선 220" d="M-.254,2.165A.346.346,0,0,1-.6,1.819V-.254A.346.346,0,0,1-.254-.6a.346.346,0,0,1,.346.346V1.819A.346.346,0,0,1-.254,2.165Z" transform="translate(8.941 0.763)"/>
      <path id="선_221" data-name="선 221" d="M-.254,2.215A.346.346,0,0,1-.6,1.869V-.254A.346.346,0,0,1-.254-.6a.346.346,0,0,1,.346.346V1.869A.346.346,0,0,1-.254,2.215Z" transform="translate(13.187 0.712)"/>
      <path id="선_222" data-name="선 222" d="M-.254,8.509H-.265A.346.346,0,0,1-.6,8.152L-.335-.265A.346.346,0,0,1,.022-.6a.346.346,0,0,1,.335.357L.092,8.174A.346.346,0,0,1-.254,8.509Z" transform="translate(10.511 2.911)"/>
      <path id="패스_39068" data-name="패스 39068" d="M33.266,12.873H31.85a.346.346,0,1,1,0-.692H32.92v-3.9a.346.346,0,1,1,.692,0v4.246A.346.346,0,0,1,33.266,12.873Z" transform="translate(-21.442 -5.497)"/>
    </g>
  </g>
</svg>
