<svg id="cate_ic02" xmlns="http://www.w3.org/2000/svg" width="40" height="40" viewBox="0 0 40 40">
  <rect id="사각형_16828" data-name="사각형 16828" width="40" height="40" fill="none"/>
  <g id="그룹_37345" data-name="그룹 37345" transform="translate(10.038 10.615)">
    <path id="패스_39060" data-name="패스 39060" d="M4.085,13.8a.346.346,0,0,1-.24-.1L.507,10.5a.346.346,0,0,1-.043-.45l3.167-4.46a.346.346,0,1,1,.564.4L1.2,10.2,4.113,13l.252-.188a.346.346,0,1,1,.413.555l-.487.362A.345.345,0,0,1,4.085,13.8Z" transform="translate(-0.4 -3.945)"/>
    <path id="패스_39061" data-name="패스 39061" d="M17.831.4a14.859,14.859,0,0,1,3.191.328l.031.008,3.636,1.176a.346.346,0,0,1,.232.4l-.206.945a21.114,21.114,0,0,0-.478,3.922L23.894,19.64a.346.346,0,0,1-.346.337h-11.1a.346.346,0,0,1-.346-.337L11.743,6.419a12.447,12.447,0,0,0-.267-2.244l-.4-1.862a.346.346,0,0,1,.224-.4L14.6.754l.034-.01A13.961,13.961,0,0,1,17.831.4Zm3.024,1a14.179,14.179,0,0,0-3.024-.308,13.29,13.29,0,0,0-3.014.321l-3,1.055.333,1.564A13.14,13.14,0,0,1,12.435,6.4l.354,12.884H23.211l.333-12.121a21.807,21.807,0,0,1,.494-4.051l.139-.638Z" transform="translate(-7.905 -0.4)"/>
    <path id="패스_39062" data-name="패스 39062" d="M54.17,13.8a.345.345,0,0,1-.194-.06l-.533-.362a.346.346,0,0,1,.389-.573l.3.2,2.856-2.8-3-4.22a.346.346,0,1,1,.564-.4l3.167,4.46a.346.346,0,0,1-.04.448l-3.269,3.2A.346.346,0,0,1,54.17,13.8Z" transform="translate(-37.595 -3.945)"/>
    <path id="패스_39063" data-name="패스 39063" d="M25.735,4.076a3.676,3.676,0,0,1-2.819-1.25l-.639-.768a.346.346,0,0,1,.532-.443l.639.768a2.98,2.98,0,0,0,2.291,1,2.865,2.865,0,0,0,2.533-1.368l.193-.357a.346.346,0,0,1,.609.33l-.193.357a3.563,3.563,0,0,1-3.141,1.73Z" transform="translate(-15.728 -1.158)"/>
  </g>
</svg>
