<svg xmlns="http://www.w3.org/2000/svg" width="40" height="40" viewBox="0 0 40 40">
  <g id="cate_ic04" transform="translate(0)">
    <rect id="사각형_16829" data-name="사각형 16829" width="40" height="40" transform="translate(0)" fill="none"/>
    <g id="그룹_37352" data-name="그룹 37352" transform="translate(12.923 8.884)">
      <path id="패스_39069" data-name="패스 39069" d="M3.37,34.774a.346.346,0,0,1-.093-.68c.045-.013,2.5-.733,2.889-2.674a.346.346,0,0,1,.679.135,3.932,3.932,0,0,1-1.886,2.515,6.213,6.213,0,0,1-1.5.69A.347.347,0,0,1,3.37,34.774Z" transform="translate(-2.087 -20.17)"/>
      <path id="선_223" data-name="선 223" d="M3.428.282H3.409L-.272.092A.346.346,0,0,1-.6-.272.346.346,0,0,1-.236-.6l3.681.19a.346.346,0,0,1,.328.364A.346.346,0,0,1,3.428.282Z" transform="translate(1.329 21.22)"/>
      <path id="패스_39070" data-name="패스 39070" d="M1.679,30.607H13.544a.346.346,0,0,1,.345.318l.91,11.109a.346.346,0,0,1-.323.374l-4.167.267a.346.346,0,0,1-.348-.227l-2.429-6.7H7.518l-2.343,6.7a.346.346,0,0,1-.349.231l-4.1-.267A.346.346,0,0,1,.4,42.033l.933-11.109A.346.346,0,0,1,1.679,30.607Zm11.546.692H2L1.121,41.74l3.488.227,2.257-6.451a.647.647,0,0,1,.661-.462.648.648,0,0,1,.66.46l2.34,6.454,3.556-.228Z" transform="translate(-0.4 -19.826)"/>
      <path id="패스_39071" data-name="패스 39071" d="M30.9,34.774a.346.346,0,0,1-.093-.013,6.26,6.26,0,0,1-1.5-.69,3.935,3.935,0,0,1-1.9-2.515.346.346,0,0,1,.679-.136c.393,1.957,2.88,2.667,2.905,2.674a.346.346,0,0,1-.092.68Z" transform="translate(-17.764 -20.17)"/>
      <path id="선_224" data-name="선 224" d="M-.254.282A.346.346,0,0,1-.6-.047.346.346,0,0,1-.271-.41L3.551-.6a.346.346,0,0,1,.363.329.346.346,0,0,1-.329.363L-.237.282Z" transform="translate(9.795 21.22)"/>
      <path id="선_225" data-name="선 225" d="M-.254,4.34A.346.346,0,0,1-.6,3.994V-.254A.346.346,0,0,1-.254-.6a.346.346,0,0,1,.346.346V3.994A.346.346,0,0,1-.254,4.34Z" transform="translate(7.527 11.399)"/>
      <path id="패스_39072" data-name="패스 39072" d="M11.011,4.3a.346.346,0,0,1-.346-.346V1.092h-.5V3.958a.346.346,0,0,1-.692,0V.746A.346.346,0,0,1,9.822.4h1.19a.346.346,0,0,1,.346.346V3.958A.346.346,0,0,1,11.011,4.3Z" transform="translate(-6.236 -0.4)"/>
      <path id="패스_39073" data-name="패스 39073" d="M15.11,17.875a.346.346,0,0,1-.276-.137l-.265-.349a7.907,7.907,0,0,1-1.4-4.509V10.425H5.3v2.456A7.907,7.907,0,0,1,3.9,17.39l-.265.349a.346.346,0,0,1-.551-.419l.265-.349a7.281,7.281,0,0,0,1.257-4.09v-2.8a.346.346,0,0,1,.346-.346h8.566a.346.346,0,0,1,.346.346v2.8a7.281,7.281,0,0,0,1.257,4.09l.265.349a.346.346,0,0,1-.275.555Z" transform="translate(-2.081 -6.402)"/>
      <path id="패스_39074" data-name="패스 39074" d="M27.678,4.3a.346.346,0,0,1-.346-.346V1.092h-.5V3.958a.346.346,0,1,1-.692,0V.746A.346.346,0,0,1,26.489.4h1.19a.346.346,0,0,1,.346.346V3.958A.346.346,0,0,1,27.678,4.3Z" transform="translate(-16.955 -0.4)"/>
      <path id="패스_39075" data-name="패스 39075" d="M17.177,17.376h-.595A1.776,1.776,0,0,1,14.808,15.6v-1.19a.346.346,0,0,1,.346-.346H18.6a.346.346,0,0,1,.346.346V15.6A1.776,1.776,0,0,1,17.177,17.376ZM15.5,14.759V15.6a1.083,1.083,0,0,0,1.081,1.081h.595A1.083,1.083,0,0,0,18.258,15.6v-.843Z" transform="translate(-9.666 -9.189)"/>
    </g>
  </g>
</svg>
