<svg xmlns="http://www.w3.org/2000/svg" width="40" height="40" viewBox="0 0 40 40">
  <g id="cate_ic08" transform="translate(16.548 21.549)">
    <rect id="사각형_16829" data-name="사각형 16829" width="40" height="40" transform="translate(-16.548 -21.549)" fill="none"/>
    <g id="그룹_37484" data-name="그룹 37484" transform="translate(-8.071 -7.256)">
      <path id="패스_39135" data-name="패스 39135" d="M2.746.4a1.207,1.207,0,0,1,.947.459A4.851,4.851,0,0,0,7.5,2.693h.2A4.864,4.864,0,0,0,11.427.943a1.469,1.469,0,0,1,2.313.077,8.251,8.251,0,0,0,1.267,1.363,8.113,8.113,0,0,0,4,1.776l2.82.459A4.753,4.753,0,0,1,25.853,9.31a.343.343,0,0,1-.343.343H.743A.343.343,0,0,1,.4,9.261l1.13-7.816A1.214,1.214,0,0,1,2.746.4ZM7.5,3.379a5.6,5.6,0,0,1-2.411-.55A5.594,5.594,0,0,1,3.157,1.287a.518.518,0,0,0-.411-.2.528.528,0,0,0-.533.458L1.139,8.967H25.153a4.073,4.073,0,0,0-3.435-3.673L18.9,4.836A8.8,8.8,0,0,1,14.562,2.9a8.938,8.938,0,0,1-1.373-1.476A.787.787,0,0,0,12.55,1.1a.765.765,0,0,0-.6.28,5.548,5.548,0,0,1-4.248,2Z" transform="translate(-0.4 -0.4)"/>
      <path id="패스_39136" data-name="패스 39136" d="M25.51,26.419H.743A.343.343,0,0,1,.4,26.077V23.356a.343.343,0,1,1,.686,0v2.378H25.167V23.356a.343.343,0,1,1,.686,0v2.721A.343.343,0,0,1,25.51,26.419Z" transform="translate(-0.4 -14.446)"/>
      <path id="패스_39137" data-name="패스 39137" d="M47.585,16.172a.343.343,0,0,1-.343-.343c0-3.777,1.709-4.863,1.781-4.907l.357.585,0,0a2.572,2.572,0,0,0-.722.878,7.007,7.007,0,0,0-.734,3.446A.343.343,0,0,1,47.585,16.172Z" transform="translate(-29.495 -6.918)"/>
      <path id="패스_39138" data-name="패스 39138" d="M33.741,4.516A.343.343,0,0,1,33.5,3.93a3.5,3.5,0,0,1,1.761-1.007.343.343,0,0,1,.04.685,2.933,2.933,0,0,0-1.316.807A.342.342,0,0,1,33.741,4.516Z" transform="translate(-20.896 -1.967)"/>
      <path id="패스_39139" data-name="패스 39139" d="M37.28,7.847a.343.343,0,0,1-.242-.585A3.5,3.5,0,0,1,38.8,6.255a.343.343,0,0,1,.04.685,2.933,2.933,0,0,0-1.316.807A.342.342,0,0,1,37.28,7.847Z" transform="translate(-23.094 -4.036)"/>
      <path id="패스_39140" data-name="패스 39140" d="M42.209,9.992a.343.343,0,0,1-.271-.552,3.5,3.5,0,0,1,1.618-1.223.343.343,0,0,1,.127.674,2.932,2.932,0,0,0-1.2.968A.342.342,0,0,1,42.209,9.992Z" transform="translate(-26.156 -5.252)"/>
      <path id="패스_39141" data-name="패스 39141" d="M12.232,11.746a.343.343,0,0,1-.341-.316,20.375,20.375,0,0,0-1.563-6.8.343.343,0,0,1,.613-.306,20.607,20.607,0,0,1,1.634,7.052.343.343,0,0,1-.314.369Z" transform="translate(-6.543 -2.72)"/>
    </g>
  </g>
</svg>
