<svg xmlns="http://www.w3.org/2000/svg" width="40" height="40" viewBox="0 0 40 40">
  <g id="cate_ic05" transform="translate(0)">
    <rect id="사각형_16829" data-name="사각형 16829" width="40" height="40" transform="translate(0)" fill="none"/>
    <g id="그룹_37348" data-name="그룹 37348" transform="translate(10.038 13.499)">
      <path id="패스_39076" data-name="패스 39076" d="M.746.4H20.36a.346.346,0,0,1,.346.346V8.8a.346.346,0,0,1-.262.336c-3.118.78-5.272,2.384-6.4,4.77a1.64,1.64,0,0,1-.121.23.346.346,0,0,1-.283.148H7.468a.346.346,0,0,1-.283-.148,1.639,1.639,0,0,1-.121-.23c-1.129-2.386-3.283-3.991-6.4-4.77A.346.346,0,0,1,.4,8.8V.746A.346.346,0,0,1,.746.4Zm19.268.692H1.092V8.529a10.863,10.863,0,0,1,4.894,2.66,8.091,8.091,0,0,1,1.695,2.4h5.745a8.091,8.091,0,0,1,1.695-2.4,10.863,10.863,0,0,1,4.894-2.66Z" transform="translate(-0.4 -0.4)"/>
      <path id="선_226" data-name="선 226" d="M19.36.092H-.254A.346.346,0,0,1-.6-.254.346.346,0,0,1-.254-.6H19.36a.346.346,0,0,1,.346.346A.346.346,0,0,1,19.36.092Z" transform="translate(0.6 2.908)"/>
      <path id="선_227" data-name="선 227" d="M-.254,11.062A.346.346,0,0,1-.6,10.716V-.254A.346.346,0,0,1-.254-.6a.346.346,0,0,1,.346.346v10.97A.346.346,0,0,1-.254,11.062Z" transform="translate(7.561 2.819)"/>
      <path id="선_228" data-name="선 228" d="M-.254,11.062A.346.346,0,0,1-.6,10.716V-.254A.346.346,0,0,1-.254-.6a.346.346,0,0,1,.346.346v10.97A.346.346,0,0,1-.254,11.062Z" transform="translate(13.225 2.819)"/>
    </g>
  </g>
</svg>
