<svg xmlns="http://www.w3.org/2000/svg" width="40" height="40" viewBox="0 0 40 40">
  <g id="cate_ic06" transform="translate(0)">
    <rect id="사각형_16829" data-name="사각형 16829" width="40" height="40" transform="translate(0)" fill="none"/>
    <g id="그룹_37349" data-name="그룹 37349" transform="translate(7.731 12.345)">
      <path id="패스_39077" data-name="패스 39077" d="M12.909,24.051a22.144,22.144,0,0,1-8.741-1.614C1.738,21.357.4,19.887.4,18.3a2.83,2.83,0,0,1,1.047-1.98,11.854,11.854,0,0,1,2.121-1.551.346.346,0,0,1,.357.593C2.019,16.509,1.092,17.47,1.092,18.3a2.72,2.72,0,0,0,.86,1.866,7.8,7.8,0,0,0,2.5,1.641,21.446,21.446,0,0,0,8.459,1.554,21.446,21.446,0,0,0,8.46-1.554,7.8,7.8,0,0,0,2.5-1.641,2.72,2.72,0,0,0,.86-1.866c0-1.749-2.211-3.41-5.77-4.336a.346.346,0,1,1,.174-.67,12.917,12.917,0,0,1,4.489,2,3.886,3.886,0,0,1,1.8,3.006c0,1.589-1.338,3.059-3.768,4.139A22.144,22.144,0,0,1,12.909,24.051Z" transform="translate(-0.4 -8.228)"/>
      <path id="패스_39078" data-name="패스 39078" d="M31.361,18.669q-.489,0-1-.045a.346.346,0,1,1,.061-.69c2.953.261,5.4-.742,6.575-2.685v-.01c.006-.083.012-.162.012-.239a8.645,8.645,0,0,0-.318-2.265.346.346,0,1,1,.656-.222A9.3,9.3,0,0,1,37.7,15c0,.1-.007.2-.013.289,0,.029,0,.059-.006.088a.346.346,0,0,1-.046.152,6.017,6.017,0,0,1-2.811,2.456A8.488,8.488,0,0,1,31.361,18.669Z" transform="translate(-18.415 -7.618)"/>
      <path id="패스_39079" data-name="패스 39079" d="M22.443,8.616a.346.346,0,0,1,0-.692,7.161,7.161,0,0,0,5.708-2.576,6.314,6.314,0,0,0-5.708-4.255,6.366,6.366,0,0,0-5.684,4.191.346.346,0,0,1-.646-.248,7.607,7.607,0,0,1,2.433-3.26,6.217,6.217,0,0,1,7.905.087A7.578,7.578,0,0,1,28.866,5.3a.346.346,0,0,1-.048.315,7.068,7.068,0,0,1-2.672,2.182A8.6,8.6,0,0,1,22.443,8.616Z" transform="translate(-9.934 -0.401)"/>
      <path id="패스_39080" data-name="패스 39080" d="M10.682,11.177a.347.347,0,0,1-.082-.01L7.023,10.3a.346.346,0,0,1-.2-.543L9,6.832a.346.346,0,0,1,.558,0l2.3,3.175a.346.346,0,1,1-.561.406L9.274,7.623,7.694,9.747l3.07.747a.346.346,0,0,1-.082.683Z" transform="translate(-4.264 -4.224)"/>
      <path id="패스_39081" data-name="패스 39081" d="M25.536,22.819a.346.346,0,0,1-.264-.122L22.7,19.675a.346.346,0,1,1,.527-.449l2.153,2.529.744-2.625-2.752-.392a.346.346,0,0,1,.1-.685l3.145.448a.346.346,0,0,1,.284.437l-1.028,3.629a.346.346,0,0,1-.333.252Z" transform="translate(-13.9 -11.126)"/>
      <path id="패스_39082" data-name="패스 39082" d="M20.258,25.981a.346.346,0,0,1-.346-.336L19.825,22.8a.346.346,0,0,1,.692-.021l.072,2.346,2.187-.891a.346.346,0,0,1,.261.641l-2.648,1.079A.346.346,0,0,1,20.258,25.981Z" transform="translate(-12.204 -13.796)"/>
      <path id="패스_39083" data-name="패스 39083" d="M7.68,18.881a.346.346,0,0,1-.339-.417l.574-2.746a.346.346,0,1,1,.678.142l-.452,2.165,2.754-.88a.346.346,0,0,1,.211.659l-3.32,1.061A.346.346,0,0,1,7.68,18.881Z" transform="translate(-4.614 -9.541)"/>
      <path id="패스_39084" data-name="패스 39084" d="M17.653,18.357a1.808,1.808,0,1,1,1.808-1.808A1.81,1.81,0,0,1,17.653,18.357Zm0-2.924a1.116,1.116,0,1,0,1.116,1.116A1.117,1.117,0,0,0,17.653,15.433Z" transform="translate(-9.785 -9.115)"/>
    </g>
  </g>
</svg>
