<svg id="cate_ic01" xmlns="http://www.w3.org/2000/svg" width="40" height="40" viewBox="0 0 40 40">
  <rect id="사각형_16828" data-name="사각형 16828" width="40" height="40" fill="none"/>
  <g id="그룹_37279" data-name="그룹 37279" transform="translate(9.171 9.806)">
    <path id="패스_39052" data-name="패스 39052" d="M2.94,25.346a1.7,1.7,0,0,1-.343-.035L2,25.187a2.017,2.017,0,0,1-1.309-.913,1.922,1.922,0,0,1-.221-1.521L3.731,9.389a.346.346,0,0,1,.672.164L1.139,22.922l0,.009a1.237,1.237,0,0,0,.142.981,1.3,1.3,0,0,0,.859.6l.6.124a1.2,1.2,0,0,0,.938-.236,1.671,1.671,0,0,0,.683-1.105.346.346,0,1,1,.687.084,2.351,2.351,0,0,1-.967,1.583A1.958,1.958,0,0,1,2.94,25.346Z" transform="translate(-0.399 -6.355)"/>
    <path id="패스_39053" data-name="패스 39053" d="M22.547,3.277a3.015,3.015,0,0,1-2.365-1.22,4.811,4.811,0,0,1-.576-.906,2.979,2.979,0,0,0-1.828,1.556.346.346,0,0,1-.625-.3A3.7,3.7,0,0,1,19.751.4a.346.346,0,0,1,.378.222c.007.019.753,1.958,2.417,1.958,1.445,0,2.473-1.976,2.483-2A.346.346,0,0,1,25.391.4a3.8,3.8,0,0,1,2.633,1.974.346.346,0,0,1-.618.312A2.955,2.955,0,0,0,26.1,1.382a3.325,3.325,0,0,0-.589-.239C25.145,1.749,24.073,3.277,22.547,3.277Z" transform="translate(-11.81 -0.4)"/>
    <path id="선_215" data-name="선 215" d="M5.279.092H-.254A.346.346,0,0,1-.6-.254.346.346,0,0,1-.254-.6H5.279a.346.346,0,0,1,.346.346A.346.346,0,0,1,5.279.092Z" transform="translate(8.248 0.6)"/>
    <path id="패스_39054" data-name="패스 39054" d="M23.905,24.3H12.7a.346.346,0,0,1-.346-.346V22.594a5.667,5.667,0,0,0-.375-1.043,4.419,4.419,0,0,1-.478-1.7L10.863,6.495a.346.346,0,0,1,.21-.335l3.275-1.392a.346.346,0,0,1,.429.135,5.309,5.309,0,0,0,3.065,2.2c.082.009.162.015.242.02a.367.367,0,0,0,.353-.2.706.706,0,0,0,0-.6.346.346,0,0,1,.222-.654c.44.12.62.769.506,1.276-.008.034-.017.067-.027.1a3.338,3.338,0,0,0,1.615-.88A3.862,3.862,0,0,0,21.6,4.96a.347.347,0,0,1,.45-.2l3.535,1.4a.346.346,0,0,1,.218.34l-.7,13.348a4.421,4.421,0,0,1-.478,1.7,5.667,5.667,0,0,0-.375,1.043V23.95A.346.346,0,0,1,23.905,24.3ZM13.044,23.6H23.559V22.559a.346.346,0,0,1,.006-.065,6.034,6.034,0,0,1,.425-1.217,3.848,3.848,0,0,0,.422-1.432q0-.009,0-.018L25.1,6.718l-3-1.191a4.7,4.7,0,0,1-.839,1.116,4.123,4.123,0,0,1-3.171,1.176,1.787,1.787,0,0,1-.347-.029h-.007a5.749,5.749,0,0,1-3.368-2.274L11.566,6.7l.625,13.126q0,.008,0,.017a3.848,3.848,0,0,0,.422,1.432,6.034,6.034,0,0,1,.425,1.217.346.346,0,0,1,.006.065Z" transform="translate(-7.541 -3.362)"/>
    <path id="패스_39055" data-name="패스 39055" d="M3.191,58.159A1.084,1.084,0,0,1,2.9,58.12l-.927-.254a1.074,1.074,0,0,1-.792-1.079l.04-.914a.346.346,0,0,1,.692.03l-.04.911a.384.384,0,0,0,.283.384l.927.254a.384.384,0,0,0,.414-.145l.426-.9a.346.346,0,0,1,.625.3l-.437.922a.347.347,0,0,1-.023.041A1.074,1.074,0,0,1,3.191,58.159Z" transform="translate(-0.935 -38.035)"/>
    <path id="패스_39056" data-name="패스 39056" d="M55.669,25.385A1.957,1.957,0,0,1,54.53,25a2.351,2.351,0,0,1-.967-1.583.346.346,0,1,1,.687-.084,1.671,1.671,0,0,0,.683,1.105,1.2,1.2,0,0,0,.939.236l.6-.124a1.3,1.3,0,0,0,.859-.6,1.237,1.237,0,0,0,.142-.982l0-.01L54.261,9.582a.346.346,0,0,1,.673-.162l3.209,13.373a1.922,1.922,0,0,1-.221,1.52,2.017,2.017,0,0,1-1.309.913l-.6.124A1.7,1.7,0,0,1,55.669,25.385Z" transform="translate(-36.683 -6.375)"/>
    <path id="패스_39057" data-name="패스 39057" d="M58.1,58.217a1.074,1.074,0,0,1-.9-.49.345.345,0,0,1-.023-.04l-.437-.922a.346.346,0,0,1,.625-.3l.426.9a.384.384,0,0,0,.414.145l.927-.254a.384.384,0,0,0,.283-.386l-.04-.909a.346.346,0,0,1,.692-.03l.04.911a1.075,1.075,0,0,1-.792,1.082l-.927.254A1.084,1.084,0,0,1,58.1,58.217Z" transform="translate(-38.831 -38.075)"/>
    <path id="선_216" data-name="선 216" d="M-.254,16.593A.346.346,0,0,1-.6,16.247V-.254A.346.346,0,0,1-.254-.6a.346.346,0,0,1,.346.346v16.5A.346.346,0,0,1-.254,16.593Z" transform="translate(11.102 4.341)"/>
    <path id="선_217" data-name="선 217" d="M10.953.092H-.254A.346.346,0,0,1-.6-.254.346.346,0,0,1-.254-.6H10.953a.346.346,0,0,1,.346.346A.346.346,0,0,1,10.953.092Z" transform="translate(5.412 19.451)"/>
    <path id="패스_39058" data-name="패스 39058" d="M19.184,44.071a.346.346,0,0,1-.213-.619c.52-.4.7-2.457.66-3.785a.346.346,0,0,1,.692-.02,16.563,16.563,0,0,1-.064,1.816A3.7,3.7,0,0,1,19.4,44,.345.345,0,0,1,19.184,44.071Z" transform="translate(-12.984 -26.957)"/>
    <path id="패스_39059" data-name="패스 39059" d="M46.845,44.071A.345.345,0,0,1,46.633,44a3.7,3.7,0,0,1-.864-2.536,16.541,16.541,0,0,1-.063-1.816.346.346,0,0,1,.692.02c-.039,1.328.14,3.38.66,3.784a.346.346,0,0,1-.213.619Z" transform="translate(-31.319 -26.957)"/>
  </g>
</svg>
