<svg xmlns="http://www.w3.org/2000/svg" width="40" height="40" viewBox="0 0 40 40">
  <g id="cate_ic07" transform="translate(0)">
    <rect id="사각형_16829" data-name="사각형 16829" width="40" height="40" transform="translate(0)" fill="none"/>
    <g id="그룹_37350" data-name="그룹 37350" transform="translate(8.884 10.615)">
      <g id="그룹_37294" data-name="그룹 37294" transform="translate(0 0)">
        <path id="패스_39086" data-name="패스 39086" d="M7.282.15h8.585a3.753,3.753,0,0,1,2.671,1.106L22.9,5.619a.346.346,0,0,1,0,.489l-3.11,3.11a.346.346,0,0,1-.489,0L17.635,7.553v7.67a.346.346,0,0,1-.346.346,3.119,3.119,0,0,0-3.117,3.114.346.346,0,0,1-.346.346h-4.5a.346.346,0,0,1-.346-.346A3.119,3.119,0,0,0,5.861,15.57a.346.346,0,0,1-.346-.346V7.553L3.85,9.218a.346.346,0,0,1-.489,0L.251,6.108a.346.346,0,0,1,0-.489l4.36-4.362A3.753,3.753,0,0,1,7.282.15ZM22.164,5.863,18.049,1.746a3.065,3.065,0,0,0-2.182-.9H7.282a3.065,3.065,0,0,0-2.182.9L.986,5.863l2.62,2.62,2.01-2.01a.346.346,0,0,1,.591.245v8.175a3.815,3.815,0,0,1,3.447,3.445H13.5a3.815,3.815,0,0,1,3.447-3.445V6.718a.346.346,0,0,1,.591-.245l2.01,2.01Z" transform="translate(-0.15 -0.15)"/>
        <path id="패스_39088" data-name="패스 39088" d="M20.841,55.987a3.811,3.811,0,0,1,3.807,3.807.346.346,0,0,1-.591.245L20.6,56.578a.346.346,0,0,1,.245-.591Zm2.95,2.807a3.13,3.13,0,0,0-1.95-1.95Z" transform="translate(-15.129 -41.261)"/>
        <path id="패스_39090" data-name="패스 39090" d="M54.5,55.987a.346.346,0,0,1,.245.591l-3.461,3.461a.346.346,0,0,1-.591-.245A3.811,3.811,0,0,1,54.5,55.987Zm-2.95,2.807,1.95-1.95A3.13,3.13,0,0,0,51.553,58.794Z" transform="translate(-37.365 -41.261)"/>
        <path id="패스_39092" data-name="패스 39092" d="M28.536.15h7.369A.346.346,0,0,1,36.251.5,4.031,4.031,0,1,1,28.19.5.346.346,0,0,1,28.536.15Zm7.005.692H28.9a3.338,3.338,0,0,0,6.641,0Z" transform="translate(-20.795 -0.15)"/>
        <path id="선_230" data-name="선 230" d="M-.254,1.487A.346.346,0,0,1-.6,1.141V-.254A.346.346,0,0,1-.254-.6a.346.346,0,0,1,.346.346V1.141A.346.346,0,0,1-.254,1.487Z" transform="translate(5.964 5.428)"/>
        <path id="선_232" data-name="선 232" d="M-.254,1.487A.346.346,0,0,1-.6,1.141V-.254A.346.346,0,0,1-.254-.6a.346.346,0,0,1,.346.346V1.141A.346.346,0,0,1-.254,1.487Z" transform="translate(17.392 5.428)"/>
      </g>
    </g>
  </g>
</svg>
