<svg xmlns="http://www.w3.org/2000/svg" xmlns:xlink="http://www.w3.org/1999/xlink" width="44" height="32" viewBox="0 0 44 32">
  <defs>
    <clipPath id="clip-path">
      <rect id="사각형_16826" data-name="사각형 16826" width="43.88" height="18.838"/>
    </clipPath>
  </defs>
  <g id="bottom_store" transform="translate(0.067 6)">
    <g id="그룹_37330" data-name="그룹 37330" clip-path="url(#clip-path)">
      <path id="패스_39099" data-name="패스 39099" d="M6,.035l.8.082c.238.025.478.04.715.077A4.467,4.467,0,0,1,9.987,1.22a2.286,2.286,0,0,1,.671,2.358A3.2,3.2,0,0,1,9.651,5.151,6.441,6.441,0,0,1,8.3,6.108c-.728.409-1.464.805-2.195,1.228.05-.006.1-.009.149-.019.305-.059.61-.124.916-.176A2.221,2.221,0,0,1,7.5,7.134h1a9.684,9.684,0,0,1,1.445.229,6.5,6.5,0,0,1,1.871.767,4.908,4.908,0,0,1,1.964,2.17,4.828,4.828,0,0,1,.316,1.1,5.487,5.487,0,0,1,.067,1.338,5.288,5.288,0,0,1-1.709,3.781,7.09,7.09,0,0,1-1.717,1.121,10.626,10.626,0,0,1-2.339.789c-.342.075-.7.1-1.036.177-.281.065-.567.064-.848.112l-.4.037-.074,0-.392.006-.287.026-.076.012c-.026,0-.052-.007-.078-.007l-5.2,0c0-.066-.012-.131-.012-.2Q0,9.4,0,.207V.018A.731.731,0,0,1,.112,0L5.245,0,6,.035M2.511.362,2.482.4c0,.053-.005.105-.005.158q0,4.618,0,9.236c0,.053,0,.106,0,.158v.091l.021,0,.044-.093A5.294,5.294,0,0,1,4.1,8.18c.481-.358.979-.694,1.463-1.049S6.546,6.437,7,6.042a3.476,3.476,0,0,0,1.23-2.821c0-.136-.046-.272-.042-.407a2.051,2.051,0,0,0-.235-.88A2.343,2.343,0,0,0,6.843.789,3.721,3.721,0,0,0,5.169.395.98.98,0,0,0,4.986.358c-.317,0-.634,0-.951,0L2.511.362m0,10.423-.017.043c-.005.065-.015.13-.015.2q0,3.576,0,7.152v.184H5.243l.322-.032a1.4,1.4,0,0,0,.217-.006c.42-.075.843-.13,1.26-.229a7.557,7.557,0,0,0,1.8-.648,5.366,5.366,0,0,0,2.7-3.063,6.038,6.038,0,0,0,.288-1.261,5.909,5.909,0,0,0-.116-2.146,3.9,3.9,0,0,0-.39-1.018,4.665,4.665,0,0,0-3.96-2.338,5.022,5.022,0,0,0-1.256.072,3.965,3.965,0,0,0-1.861.8,5.343,5.343,0,0,0-1.68,2.117c-.024.058-.041.12-.061.18" transform="translate(0)"/>
      <path id="패스_39100" data-name="패스 39100" d="M377.241,18.353a11.586,11.586,0,0,0,1.143-.218,5.2,5.2,0,0,0,2.748-1.794,4.219,4.219,0,0,0,.791-1.687c.028-.127.089-.248.113-.375.048-.261.072-.526.124-.786a10.6,10.6,0,0,0,.122-2.086q0-5.532,0-11.064c0-.079,0-.158.005-.238l.03-.034h.408v.2q0,5.778,0,11.556c0,.382-.016.765-.054,1.145a9.141,9.141,0,0,1-.232,1.432,6.148,6.148,0,0,1-1.336,2.61,5.28,5.28,0,0,1-2.456,1.559c-.362.108-.738.168-1.108.248a.44.44,0,0,1-.1,0l-.439.038h-1.065l-.481-.036a6.229,6.229,0,0,1-1.157-.159,6.976,6.976,0,0,1-2.7-1.128,4.926,4.926,0,0,1-1.672-2.019,6.349,6.349,0,0,1-.411-1.345,7.341,7.341,0,0,1-.129-1.51q0-6.216,0-12.432V.079h2.476V.3q0,6.1,0,12.194c0,.363,0,.728.034,1.089a7.071,7.071,0,0,0,.154.839,5.861,5.861,0,0,0,1.225,2.566,3.763,3.763,0,0,0,2.215,1.281,2.014,2.014,0,0,0,.6.081l.87.032.283-.03" transform="translate(-338.845 -0.066)"/>
      <path id="패스_39101" data-name="패스 39101" d="M208.9,18.035a1.986,1.986,0,0,0,.823-.453c.117-.1.223-.207.341-.3a.153.153,0,0,1,.136-.026c.066.042.034.11-.011.151-.192.181-.38.369-.586.533a4.243,4.243,0,0,1-1.607.818c-.119.03-.242.046-.364.069h-.562a1.732,1.732,0,0,1-1.461-1.351,3.353,3.353,0,0,1-.113-.874c-.008-.284,0-.568,0-.852q0-7.7,0-15.4c0-.079,0-.158,0-.238l.03-.035h2.417L207.98.1c0,.079.006.158.006.237q0,7.995,0,15.989c0,.211-.014.424.007.633a1.968,1.968,0,0,0,.2.755.585.585,0,0,0,.385.316.33.33,0,0,0,.322,0" transform="translate(-188.508 -0.065)"/>
      <path id="패스_39102" data-name="패스 39102" d="M293.2,78.606a1.421,1.421,0,0,1-.749-.3,1.683,1.683,0,0,1-.585-.733,2.418,2.418,0,0,1-.21-.909c0-.172-.01-.343-.01-.515q0-5.338,0-10.675c0-.079.007-.157.011-.236h2.455c0,.079.009.158.009.237q0,5.358,0,10.716a7.617,7.617,0,0,0,.074.905,1.306,1.306,0,0,0,.116.355.6.6,0,0,0,.394.362.389.389,0,0,0,.359,0,2.556,2.556,0,0,0,1.04-.662.881.881,0,0,1,.132-.118.113.113,0,0,1,.106,0,.115.115,0,0,1,.016.1.353.353,0,0,1-.085.108,4.781,4.781,0,0,1-2,1.254c-.154.048-.317.07-.475.1h-.6" transform="translate(-267.532 -59.846)"/>
      <path id="패스_39103" data-name="패스 39103" d="M292.926,2.29a1.243,1.243,0,0,1,1.115,1.342,1.283,1.283,0,0,1-1.25,1.137,1.3,1.3,0,0,1-1.231-1.15,1.254,1.254,0,0,1,1.124-1.329h.243" transform="translate(-267.456 -2.1)"/>
      <path id="패스_39104" data-name="패스 39104" d="M.152,227.387l5.2,0c.026,0,.052,0,.078.007a1.106,1.106,0,0,1-.189.032q-2.45,0-4.9,0a.938.938,0,0,1-.185-.037" transform="translate(-0.139 -208.588)"/>
      <path id="패스_39105" data-name="패스 39105" d="M294.236,64.8h-2.455a.406.406,0,0,1,.116-.038q1.112,0,2.224,0a.383.383,0,0,1,.115.039" transform="translate(-267.66 -59.406)"/>
      <path id="패스_39106" data-name="패스 39106" d="M91.762,85.8h-1a2.856,2.856,0,0,1,1,0" transform="translate(-83.259 -78.669)"/>
      <path id="패스_39107" data-name="패스 39107" d="M451.385,221.229l-.87-.032.879,0q0,.014-.009.027" transform="translate(-413.272 -202.911)"/>
      <path id="패스_39108" data-name="패스 39108" d="M64.209.06,63.45.028l.759.032" transform="translate(-58.205 -0.026)"/>
      <path id="패스_39109" data-name="패스 39109" d="M310.462,226.934h.6a1.007,1.007,0,0,1-.6,0" transform="translate(-284.797 -208.174)"/>
      <path id="패스_39110" data-name="패스 39110" d="M224.6,226.939h.562a.905.905,0,0,1-.562,0" transform="translate(-206.029 -208.179)"/>
      <path id="패스_39111" data-name="패스 39111" d="M442.845,226.927l.481.036-.481-.036" transform="translate(-406.237 -208.168)"/>
      <path id="패스_39112" data-name="패스 39112" d="M461.539,226.94l.439-.038-.439.038" transform="translate(-423.385 -208.145)"/>
      <path id="패스_39113" data-name="패스 39113" d="M73.98,226.471l.4-.037-.4.037" transform="translate(-67.864 -207.715)"/>
      <path id="패스_39114" data-name="패스 39114" d="M68.227,226.939l.391-.006-.4.033.011-.027" transform="translate(-62.577 -208.173)"/>
      <path id="패스_39115" data-name="패스 39115" d="M329.053,217.346a.389.389,0,0,1-.359,0l.359,0" transform="translate(-301.522 -199.379)"/>
      <path id="패스_39116" data-name="패스 39116" d="M243.146,217.377a.33.33,0,0,1-.322,0h.322" transform="translate(-222.751 -199.407)"/>
      <path id="패스_39117" data-name="패스 39117" d="M461.039,221.248c0-.009.006-.018.009-.027l.275,0-.283.03" transform="translate(-422.926 -202.931)"/>
      <path id="패스_39118" data-name="패스 39118" d="M65.167,227.007l-.011.027H64.88l.287-.026" transform="translate(-59.517 -208.241)"/>
      <path id="패스_39119" data-name="패스 39119" d="M305.425,1.872h-.243a.212.212,0,0,1,.243,0" transform="translate(-279.954 -1.682)"/>
      <path id="패스_39120" data-name="패스 39120" d="M235.208.108l-.031-.033.031.033" transform="translate(-215.736 -0.069)"/>
      <path id="패스_39121" data-name="패스 39121" d="M205.605.071l-.03.035.03-.035" transform="translate(-188.581 -0.065)"/>
      <path id="패스_39124" data-name="패스 39124" d="M33.034,4.324l-2.655,0a.169.169,0,0,1,0-.035L31.9,4.284c.317,0,.634,0,.951,0a.982.982,0,0,1,.183.037" transform="translate(-27.865 -3.93)"/>
      <path id="패스_39125" data-name="패스 39125" d="M63.429,221.731l.322-.032-.322.032" transform="translate(-58.186 -203.372)"/>
      <path id="패스_39126" data-name="패스 39126" d="M30.015,120.379l.065,0-.044.093-.021,0Z" transform="translate(-27.534 -110.428)"/>
      <path id="패스_39127" data-name="패스 39127" d="M30.051,4.379a.164.164,0,0,0,0,.035l-.016,0-.016,0,.029-.037" transform="translate(-27.54 -4.017)"/>
      <path id="패스_39128" data-name="패스 39128" d="M30.165,130.465l-.017.043.017-.043" transform="translate(-27.656 -119.68)"/>
    </g>
    <rect id="사각형_16831" data-name="사각형 16831" width="44" height="32" transform="translate(-0.067 -6)" fill="none"/>
  </g>
</svg>
