<svg xmlns="http://www.w3.org/2000/svg" width="34.997" height="27.417" viewBox="0 0 34.997 27.417">
  <g id="ic-ecommerce-delivery" transform="translate(-1.375 -3.865)">
    <g id="Vrstva_535" data-name="Vrstva 535" transform="translate(2 4.49)">
      <path id="패스_134" data-name="패스 134" d="M6.689,27.2H5.361A3.361,3.361,0,0,1,2,23.834V7.851A3.361,3.361,0,0,1,5.361,4.49H21.8a3.361,3.361,0,0,1,3.361,3.361V19.464" transform="translate(-2 -4.49)" fill="none" stroke="#000" stroke-linecap="round" stroke-linejoin="round" stroke-width="1.25"/>
      <path id="패스_135" data-name="패스 135" d="M15.75,8.19h4.672a1.983,1.983,0,0,1,1.563.756l3.8,5.042a3.042,3.042,0,0,1,.605,1.8v8.4a.336.336,0,0,1-.336.336H20.926" transform="translate(7.358 -1.972)" fill="none" stroke="#000" stroke-linecap="round" stroke-linejoin="round" stroke-width="1.25"/>
      <circle id="타원_29" data-name="타원 29" cx="3.765" cy="3.765" r="3.765" transform="translate(20.621 18.638)" fill="none" stroke="#000" stroke-linecap="round" stroke-linejoin="round" stroke-width="1.25"/>
      <circle id="타원_30" data-name="타원 30" cx="3.765" cy="3.765" r="3.765" transform="translate(4.672 18.638)" fill="none" stroke="#000" stroke-linecap="round" stroke-linejoin="round" stroke-width="1.25"/>
      <line id="선_121" data-name="선 121" x1="8.622" transform="translate(12.016 22.621)" fill="none" stroke="#000" stroke-linecap="round" stroke-linejoin="round" stroke-width="1.25"/>
    </g>
  </g>
</svg>
