<svg xmlns="http://www.w3.org/2000/svg" width="40" height="40" viewBox="0 0 40 40">
  <g id="mypage_ic02" transform="translate(-344 -184)">
    <rect id="사각형_185" data-name="사각형 185" width="40" height="40" transform="translate(344 184)" fill="none"/>
    <g id="Xnix_Line_Edit" data-name="Xnix/Line/Edit" transform="translate(346 184)">
      <g id="Vector" transform="translate(5 5)">
        <path id="Vector-8" d="M17.788.236l2.892,2.3a1.381,1.381,0,0,1-.011,2.022l-2.2,2.63-7.477,8.917a.955.955,0,0,1-.5.3l-3.878.879A.977.977,0,0,1,5.6,16.438V12.453a.859.859,0,0,1,.22-.517l7.338-8.3L15.677.631A1.6,1.6,0,0,1,17.788.236Z" transform="translate(4.741 0)" fill="none" stroke="#000" stroke-linecap="round" stroke-linejoin="round" stroke-width="1.25" fill-rule="evenodd"/>
        <path id="Vector-9" d="M13.031,1.869H7.446A7.464,7.464,0,0,0,0,9.348v11.22a7.464,7.464,0,0,0,7.446,7.48h11.17a7.464,7.464,0,0,0,7.446-7.48v-7.48M5.585,22.439H20.479" transform="translate(-0.967 0.611)" fill="none" stroke="#000" stroke-linecap="round" stroke-linejoin="round" stroke-width="1.25" fill-rule="evenodd"/>
      </g>
    </g>
  </g>
</svg>
