<svg id="ic_home" xmlns="http://www.w3.org/2000/svg" width="30" height="30" viewBox="0 0 30 30">
  <rect id="사각형_16788" data-name="사각형 16788" width="30" height="30" fill="none"/>
  <g id="그룹_37452" data-name="그룹 37452" transform="translate(4.999 3)">
    <path id="패스_39037" data-name="패스 39037" d="M12.853,1.375a.624.624,0,0,1,.384.132L23.089,9.17a.625.625,0,0,1,.241.493V21.706a2.818,2.818,0,0,1-2.815,2.815H5.19a2.818,2.818,0,0,1-2.815-2.815V9.663a.625.625,0,0,1,.241-.493l9.853-7.663A.624.624,0,0,1,12.853,1.375Zm9.228,8.594L12.853,2.792,3.625,9.969V21.706A1.566,1.566,0,0,0,5.19,23.27H20.516a1.566,1.566,0,0,0,1.565-1.565Z" transform="translate(-2.375 -1.375)"/>
    <path id="패스_39038" data-name="패스 39038" d="M15.569,23.573a.625.625,0,0,1-.625-.625V12.625H9.625V22.948a.625.625,0,0,1-1.25,0V12A.625.625,0,0,1,9,11.375h6.569a.625.625,0,0,1,.625.625V22.948A.625.625,0,0,1,15.569,23.573Z" transform="translate(-1.806 -0.427)"/>
  </g>
</svg>
