<svg xmlns="http://www.w3.org/2000/svg" width="60" height="60" viewBox="0 0 60 60">
  <g id="sns_a" transform="translate(-0.514 -0.361)">
    <rect id="사각형_16969" data-name="사각형 16969" width="60" height="60" transform="translate(0.514 0.361)"/>
    <path id="패스_35677" data-name="패스 35677" d="M17.509,49.915c-1.142-1.105-2.137-2.174-4.237-2.284-1.695-.074-2.468.958-4.052.994-1.474.037-1.363-1.142-4.421-.811C2.147,48.109-.175,50.762.01,54.483c.184,4.016,2.984,9.578,5.6,9.578,1.842-.037,2.284-.921,3.795-.921,1.879,0,2.321,1.1,3.794.884,2.542-.368,4.937-4.384,4.937-5.673a5.106,5.106,0,0,1-2.984-4.089,4.947,4.947,0,0,1,2.358-4.347" transform="translate(21.526 -23.833)" fill="#fff" fill-rule="evenodd"/>
    <path id="패스_35678" data-name="패스 35678" d="M85.131,5.157A4.895,4.895,0,0,1,89.441,0c.405,2.468-1.621,5.3-4.31,5.157" transform="translate(-54.901 18.935)" fill="#fff" fill-rule="evenodd"/>
  </g>
</svg>
