<svg xmlns="http://www.w3.org/2000/svg" xmlns:xlink="http://www.w3.org/1999/xlink" width="60" height="60" viewBox="0 0 60 60">
  <defs>
    <clipPath id="clip-path">
      <rect id="사각형_6577" data-name="사각형 6577" width="24.769" height="22.755" fill="none"/>
    </clipPath>
    <clipPath id="clip-path-2">
      <path id="패스_35682" data-name="패스 35682" d="M13.245,28.181h1.275s.008,3.5,0,4.317c0,.6,1.326.6,1.325.009l.006-4.28s.427,0,1.268,0a.624.624,0,0,0,0-1.247c-.893,0-3.877-.025-3.877-.025a.613.613,0,0,0,0,1.222" transform="translate(-12.683 -26.959)" fill="none"/>
    </clipPath>
    <clipPath id="clip-path-4">
      <path id="패스_35684" data-name="패스 35684" d="M31.3,28.483l.709,2.223H30.528ZM30.5,27.441c-.314.691-1.447,3.953-1.823,4.819-.272.625.9,1.135,1.173.51l.255-.892H32.44s-.08.036.229.854c.251.661,1.462.2,1.211-.459-.358-.946-1.6-4.349-1.823-4.832a.963.963,0,0,0-.839-.382.739.739,0,0,0-.716.382" transform="translate(-28.639 -27.059)" fill="none"/>
    </clipPath>
    <clipPath id="clip-path-6">
      <path id="패스_35686" data-name="패스 35686" d="M51.3,27.649c0,1.109.006,4.682.006,4.682s-.1.71.506.71,1.96-.007,2.559-.007.6-1.274,0-1.274-1.693-.007-1.693-.007.005-3.305,0-4.108a.7.7,0,0,0-1.38,0" transform="translate(-51.303 -27.063)" fill="none"/>
    </clipPath>
    <clipPath id="clip-path-8">
      <path id="패스_35688" data-name="패스 35688" d="M66.522,27.481c.013.486-.016,4.882-.015,5.208,0,.514,1.309.513,1.309,0,0-.6,0-1.73,0-1.73l.384-.308,1.68,2.293c.34.448,1.409-.362,1.069-.81l-1.785-2.35s1.211-1.31,1.689-1.785c.279-.277-.584-1.146-.862-.868S67.824,29.3,67.824,29.3s.017-1.193,0-1.852c-.007-.25-.314-.371-.628-.371-.337,0-.68.139-.673.407" transform="translate(-66.507 -27.074)" fill="none"/>
    </clipPath>
  </defs>
  <g id="sns_k" transform="translate(-0.5 -0.361)">
    <rect id="사각형_16967" data-name="사각형 16967" width="60" height="60" transform="translate(0.5 0.361)" fill="#ffe810"/>
    <g id="그룹_12057" data-name="그룹 12057" transform="translate(18.579 19.072)">
      <g id="그룹_12042" data-name="그룹 12042" transform="translate(0 0)">
        <g id="그룹_12041" data-name="그룹 12041" clip-path="url(#clip-path)">
          <path id="패스_35680" data-name="패스 35680" d="M12.385,0C5.545,0,0,4.383,0,9.791c0,3.519,2.349,6.6,5.875,8.33-.259.966-.938,3.5-1.074,4.045-.168.674.246.665.518.484.213-.142,3.393-2.305,4.766-3.239a15.649,15.649,0,0,0,2.3.169c6.84,0,12.385-4.383,12.385-9.79S19.224,0,12.385,0" transform="translate(0 0)" fill="#371d1e"/>
          <path id="패스_35681" data-name="패스 35681" d="M13.245,28.182h1.275s.008,3.5,0,4.317c0,.6,1.326.6,1.324.009l.006-4.28s.427,0,1.268,0a.624.624,0,0,0,0-1.247c-.893,0-3.877-.024-3.877-.024a.613.613,0,0,0,0,1.222" transform="translate(-9.5 -20.194)" fill="#fae100"/>
        </g>
      </g>
      <g id="그룹_12044" data-name="그룹 12044" transform="translate(3.183 6.766)">
        <g id="그룹_12043" data-name="그룹 12043" clip-path="url(#clip-path-2)">
          <rect id="사각형_6578" data-name="사각형 6578" width="5.417" height="6.143" transform="translate(-0.188 0)" fill="#fae100"/>
        </g>
      </g>
      <g id="그룹_12046" data-name="그룹 12046" transform="translate(0 0)">
        <g id="그룹_12045" data-name="그룹 12045" clip-path="url(#clip-path)">
          <path id="패스_35683" data-name="패스 35683" d="M31.3,28.483l.709,2.223H30.528ZM30.5,27.442c-.314.691-1.447,3.953-1.823,4.818-.272.625.9,1.135,1.173.51l.255-.892H32.44s-.08.037.229.854c.251.661,1.462.2,1.211-.459-.358-.946-1.6-4.35-1.823-4.832a.963.963,0,0,0-.839-.383.739.739,0,0,0-.716.383" transform="translate(-21.451 -20.268)" fill="#fae100"/>
        </g>
      </g>
      <g id="그룹_12048" data-name="그룹 12048" transform="translate(7.187 6.791)">
        <g id="그룹_12047" data-name="그룹 12047" clip-path="url(#clip-path-4)">
          <rect id="사각형_6580" data-name="사각형 6580" width="5.724" height="6.336" transform="translate(-0.232 0)" fill="#fae100"/>
        </g>
      </g>
      <g id="그룹_12050" data-name="그룹 12050" transform="translate(0 0)">
        <g id="그룹_12049" data-name="그룹 12049" clip-path="url(#clip-path)">
          <path id="패스_35685" data-name="패스 35685" d="M51.3,27.65c0,1.109.006,4.682.006,4.682s-.1.71.506.71,1.96-.007,2.559-.007.6-1.274,0-1.274-1.693-.007-1.693-.007.005-3.3,0-4.108a.7.7,0,0,0-1.38,0" transform="translate(-38.427 -20.272)" fill="#fae100"/>
        </g>
      </g>
      <g id="그룹_12052" data-name="그룹 12052" transform="translate(12.875 6.792)">
        <g id="그룹_12051" data-name="그룹 12051" clip-path="url(#clip-path-6)">
          <rect id="사각형_6582" data-name="사각형 6582" width="3.767" height="5.978" transform="translate(-0.096 0)" fill="#fae100"/>
        </g>
      </g>
      <g id="그룹_12054" data-name="그룹 12054" transform="translate(0 0)">
        <g id="그룹_12053" data-name="그룹 12053" clip-path="url(#clip-path)">
          <path id="패스_35687" data-name="패스 35687" d="M66.522,27.482c.013.486-.016,4.883-.015,5.208,0,.514,1.309.513,1.309,0,0-.6,0-1.73,0-1.73l.384-.308,1.68,2.293c.34.448,1.409-.362,1.07-.81l-1.785-2.351s1.211-1.31,1.689-1.784c.279-.277-.584-1.146-.863-.868S67.824,29.3,67.824,29.3s.017-1.193,0-1.852c-.007-.25-.314-.371-.628-.371-.336,0-.68.139-.673.407" transform="translate(-49.816 -20.28)" fill="#fae100"/>
        </g>
      </g>
      <g id="그룹_12056" data-name="그룹 12056" transform="translate(16.691 6.795)">
        <g id="그룹_12055" data-name="그룹 12055" clip-path="url(#clip-path-8)">
          <rect id="사각형_6584" data-name="사각형 6584" width="4.783" height="6.538" transform="translate(0 -0.221)" fill="#fae100"/>
        </g>
      </g>
    </g>
  </g>
</svg>
