<svg id="cate_ic01" xmlns="http://www.w3.org/2000/svg" width="70" height="70" viewBox="0 0 70 70">
  <rect id="사각형_16828" data-name="사각형 16828" width="70" height="70" fill="none"/>
  <g id="그룹_37279" data-name="그룹 37279" transform="translate(16.055 17.154)">
    <path id="패스_39052" data-name="패스 39052" d="M6.758,9.725,1.1,32.9A2.816,2.816,0,0,0,3.291,36.38l1.04.215a3.24,3.24,0,0,0,3.528-2.84" transform="translate(-0.557 -4.48)" fill="none" stroke="#000" stroke-linecap="round" stroke-linejoin="round" stroke-width="1.2"/>
    <path id="패스_39053" data-name="패스 39053" d="M17.719,4.141A5.836,5.836,0,0,1,21.775,1s1.4,3.786,4.753,3.786c2.9,0,4.839-3.786,4.839-3.786a6.013,6.013,0,0,1,4.12,3.1" transform="translate(-8.074 -0.556)" fill="none" stroke="#000" stroke-linecap="round" stroke-linejoin="round" stroke-width="1.2"/>
    <line id="선_215" data-name="선 215" x2="9.591" transform="translate(13.7 0.444)" fill="none" stroke="#000" stroke-linecap="round" stroke-linejoin="round" stroke-width="1.2"/>
    <path id="패스_39054" data-name="패스 39054" d="M24.214,6.931a1.455,1.455,0,0,1-1.338,2.5c-3.563-.635-5.736-4.1-5.736-4.1L11.463,7.753l1.1,23.17c0,1.579,1.18,3.155,1.478,4.706v2.41H33.471v-2.41c.3-1.551,1.48-3.127,1.478-4.706L36.158,7.769,30.031,5.34a6.834,6.834,0,0,1-7.154,4.1" transform="translate(-5.261 -2.508)" fill="none" stroke="#000" stroke-linecap="round" stroke-linejoin="round" stroke-width="1.2"/>
    <path id="패스_39055" data-name="패스 39055" d="M1.855,56.142l-.069,1.58a1.269,1.269,0,0,0,.932,1.27l1.606.441a1.268,1.268,0,0,0,1.4-.531l.758-1.6" transform="translate(-0.909 -25.352)" fill="none" stroke="#000" stroke-linecap="round" stroke-linejoin="round" stroke-width="1.2"/>
    <path id="패스_39056" data-name="패스 39056" d="M55.357,9.755l5.565,23.19a2.816,2.816,0,0,1-2.193,3.481l-1.04.215a3.24,3.24,0,0,1-3.528-2.84" transform="translate(-24.461 -4.493)" fill="none" stroke="#000" stroke-linecap="round" stroke-linejoin="round" stroke-width="1.2"/>
    <path id="패스_39057" data-name="패스 39057" d="M61.934,56.2,62,57.78a1.269,1.269,0,0,1-.932,1.27l-1.606.441a1.268,1.268,0,0,1-1.4-.531l-.758-1.6" transform="translate(-25.876 -25.378)" fill="none" stroke="#000" stroke-linecap="round" stroke-linejoin="round" stroke-width="1.2"/>
    <line id="선_216" data-name="선 216" y2="28.603" transform="translate(18.647 6.928)" fill="none" stroke="#000" stroke-linecap="round" stroke-linejoin="round" stroke-width="1.2"/>
    <line id="선_217" data-name="선 217" x2="19.427" transform="translate(8.783 33.121)" fill="none" stroke="#000" stroke-linecap="round" stroke-linejoin="round" stroke-width="1.2"/>
    <path id="패스_39058" data-name="패스 39058" d="M20.814,39.911s.171,5.847-1.376,7.051" transform="translate(-8.847 -18.053)" fill="none" stroke="#000" stroke-linecap="round" stroke-linejoin="round" stroke-width="1.2"/>
    <path id="패스_39059" data-name="패스 39059" d="M46.308,39.911s-.173,5.847,1.376,7.051" transform="translate(-20.927 -18.053)" fill="none" stroke="#000" stroke-linecap="round" stroke-linejoin="round" stroke-width="1.2"/>
  </g>
</svg>
