<svg xmlns="http://www.w3.org/2000/svg" width="70" height="70" viewBox="0 0 70 70">
  <g id="cate_ic04" transform="translate(16.549 21.549)">
    <rect id="사각형_16829" data-name="사각형 16829" width="70" height="70" transform="translate(-16.549 -21.549)" fill="none"/>
    <g id="그룹_37352" data-name="그룹 37352">
      <path id="패스_39069" data-name="패스 39069" d="M3.624,36.838s4.678-1.3,5.435-5.1" transform="translate(4.45 -18.271)" fill="none" stroke="#000" stroke-linecap="round" stroke-linejoin="round" stroke-width="1.2"/>
      <line id="선_223" data-name="선 223" x2="6.381" y2="0.329" transform="translate(7.715 30.195)" fill="none" stroke="#000" stroke-linecap="round" stroke-linejoin="round" stroke-width="1.2"/>
      <path id="패스_39070" data-name="패스 39070" d="M23.184,31.207l1.578,19.257-7.222.462L13.318,39.278c-.086-.486-1.047-.486-1.133,0L8.11,50.926,1,50.464,2.617,31.207Z" transform="translate(5.451 -18.067)" fill="none" stroke="#000" stroke-linecap="round" stroke-linejoin="round" stroke-width="1.2"/>
      <path id="패스_39071" data-name="패스 39071" d="M33.464,36.838s-4.7-1.3-5.464-5.1" transform="translate(-4.845 -18.271)" fill="none" stroke="#000" stroke-linecap="round" stroke-linejoin="round" stroke-width="1.2"/>
      <line id="선_224" data-name="선 224" x1="6.626" y2="0.329" transform="translate(22.39 30.195)" fill="none" stroke="#000" stroke-linecap="round" stroke-linejoin="round" stroke-width="1.2"/>
      <line id="선_225" data-name="선 225" y2="7.364" transform="translate(18.458 13.171)" fill="none" stroke="#000" stroke-linecap="round" stroke-linejoin="round" stroke-width="1.2"/>
      <path id="패스_39072" data-name="패스 39072" d="M10.075,6.568V1h2.062V6.568" transform="translate(1.99 -6.549)" fill="none" stroke="#000" stroke-linecap="round" stroke-linejoin="round" stroke-width="1.2"/>
      <path id="패스_39073" data-name="패스 39073" d="M23.982,23.247l-.459-.6a13.173,13.173,0,0,1-2.3-7.453V10.333H6.374V15.19a13.173,13.173,0,0,1-2.3,7.453l-.459.6" transform="translate(4.454 -10.107)" fill="none" stroke="#000" stroke-linecap="round" stroke-linejoin="round" stroke-width="1.2"/>
      <path id="패스_39074" data-name="패스 39074" d="M28.8,6.568V1H26.742V6.568" transform="translate(-4.366 -6.549)" fill="none" stroke="#000" stroke-linecap="round" stroke-linejoin="round" stroke-width="1.2"/>
      <path id="패스_39075" data-name="패스 39075" d="M18.914,19.2H17.883a2.475,2.475,0,0,1-2.475-2.475V14.667h5.981v2.062A2.475,2.475,0,0,1,18.914,19.2Z" transform="translate(-0.043 -11.76)" fill="none" stroke="#000" stroke-linecap="round" stroke-linejoin="round" stroke-width="1.2"/>
    </g>
  </g>
</svg>
