<svg id="cate_ic02" xmlns="http://www.w3.org/2000/svg" width="70" height="70" viewBox="0 0 70 70">
  <rect id="사각형_16828" data-name="사각형 16828" width="70" height="70" fill="none"/>
  <g id="그룹_37345" data-name="그룹 37345" transform="translate(17.576 18.576)">
    <path id="패스_39060" data-name="패스 39060" d="M6.49,6.041,1,13.772l5.787,5.554.844-.628" transform="translate(-0.576 -3.023)" fill="none" stroke="#000" stroke-linecap="round" stroke-linejoin="round" stroke-width="1.2"/>
    <path id="패스_39061" data-name="패스 39061" d="M28.188,1.554l6.3,2.038L34.134,5.23a37.112,37.112,0,0,0-.842,6.91L32.7,33.735H13.465l-.63-22.917a22.124,22.124,0,0,0-.476-4l-.687-3.228,5.723-2.013A25.967,25.967,0,0,1,28.188,1.554Z" transform="translate(-5.757 -0.575)" fill="none" stroke="#000" stroke-linecap="round" stroke-linejoin="round" stroke-width="1.2"/>
    <path id="패스_39062" data-name="패스 39062" d="M54.992,6.041l5.49,7.732-5.666,5.554-.924-.628" transform="translate(-26.258 -3.023)" fill="none" stroke="#000" stroke-linecap="round" stroke-linejoin="round" stroke-width="1.2"/>
    <path id="패스_39063" data-name="패스 39063" d="M22.8,2.1,23.9,3.43a5.76,5.76,0,0,0,4.433,1.951A5.552,5.552,0,0,0,33.255,2.7l.335-.619" transform="translate(-11.159 -1.099)" fill="none" stroke="#000" stroke-linecap="round" stroke-linejoin="round" stroke-width="1.2"/>
  </g>
</svg>
