<svg xmlns="http://www.w3.org/2000/svg" width="70" height="70" viewBox="0 0 70 70">
  <g id="cate_ic06" transform="translate(16.549 21.549)">
    <rect id="사각형_16829" data-name="사각형 16829" width="70" height="70" transform="translate(-16.549 -21.549)" fill="none"/>
    <g id="그룹_37349" data-name="그룹 37349" transform="translate(-3.119 -0.119)">
      <path id="패스_39077" data-name="패스 39077" d="M32.715,13.881c6.251,1.626,10.451,4.643,10.451,8.1,0,5.176-9.439,9.372-21.083,9.372S1,27.153,1,21.978c0-2.081,2.62-4.051,5.2-5.607" transform="translate(-0.43 -4.551)" fill="none" stroke="#000" stroke-linecap="round" stroke-linejoin="round" stroke-width="1.2"/>
      <path id="패스_39078" data-name="패스 39078" d="M30.646,22.681c5.781.51,10.05-1.645,12.038-5.069.013-.2.033-.407.033-.615a15.507,15.507,0,0,0-.582-4.119" transform="translate(-9.914 -4.23)" fill="none" stroke="#000" stroke-linecap="round" stroke-linejoin="round" stroke-width="1.2"/>
      <path id="패스_39079" data-name="패스 39079" d="M27.1,14.041A13,13,0,0,0,37.67,9.079C36.188,4.717,32.022,1,27.1,1c-4.757,0-8.812,3.476-10.414,7.65" transform="translate(-5.449 -0.43)" fill="none" stroke="#000" stroke-linecap="round" stroke-linejoin="round" stroke-width="1.2"/>
      <path id="패스_39080" data-name="패스 39080" d="M15.111,12.8l-3.987-5.5L7.358,12.356l6.2,1.51" transform="translate(-2.464 -2.443)" fill="none" stroke="#000" stroke-linecap="round" stroke-linejoin="round" stroke-width="1.2"/>
      <path id="패스_39081" data-name="패스 39081" d="M23.216,20.479l4.461,5.239,1.783-6.291-5.451-.777" transform="translate(-7.537 -6.076)" fill="none" stroke="#000" stroke-linecap="round" stroke-linejoin="round" stroke-width="1.2"/>
      <path id="패스_39082" data-name="패스 39082" d="M20.425,23.045l.15,4.929,4.591-1.87" transform="translate(-6.644 -7.482)" fill="none" stroke="#000" stroke-linecap="round" stroke-linejoin="round" stroke-width="1.2"/>
      <path id="패스_39083" data-name="패스 39083" d="M8.929,16.042,7.934,20.8l5.755-1.839" transform="translate(-2.649 -5.242)" fill="none" stroke="#000" stroke-linecap="round" stroke-linejoin="round" stroke-width="1.2"/>
      <path id="패스_39084" data-name="패스 39084" d="M21.512,17.875a2.534,2.534,0,1,1-2.534-2.534A2.534,2.534,0,0,1,21.512,17.875Z" transform="translate(-5.371 -5.018)" fill="none" stroke="#000" stroke-linecap="round" stroke-linejoin="round" stroke-width="1.2"/>
    </g>
  </g>
</svg>
