<svg xmlns="http://www.w3.org/2000/svg" width="70" height="70" viewBox="0 0 70 70">
  <g id="cate_ic08" transform="translate(16.549 21.549)">
    <rect id="사각형_16829" data-name="사각형 16829" width="70" height="70" transform="translate(-16.549 -21.549)" fill="none"/>
    <g id="그룹_37484" data-name="그룹 37484" transform="translate(-1.774 3.401)">
      <path id="패스_39135" data-name="패스 39135" d="M5.693,1.578h0a9.133,9.133,0,0,0,7.168,3.434h.321a9.13,9.13,0,0,0,6.976-3.277,1.971,1.971,0,0,1,3.1.107,15.015,15.015,0,0,0,2.311,2.484A14.794,14.794,0,0,0,32.867,7.57l4.935.8a7.719,7.719,0,0,1,6.539,7.62H1L2.978,2.315A1.533,1.533,0,0,1,5.693,1.578Z" transform="translate(-0.338 -0.337)" fill="none" stroke="#000" stroke-linecap="round" stroke-linejoin="round" stroke-width="1.2"/>
      <path id="패스_39136" data-name="패스 39136" d="M1,23.613v4.762H44.342V23.613" transform="translate(-0.338 -7.958)" fill="none" stroke="#000" stroke-linecap="round" stroke-linejoin="round" stroke-width="1.2"/>
      <path id="패스_39137" data-name="패스 39137" d="M50.672,11.434s-2.83,1.725-2.83,8.075" transform="translate(-16.123 -3.853)" fill="none" stroke="#000" stroke-linecap="round" stroke-linejoin="round" stroke-width="1.2"/>
      <path id="패스_39138" data-name="패스 39138" d="M34,5.11s1.518-1.518,2.692-1.587" transform="translate(-11.457 -1.188)" fill="none" stroke="#000" stroke-linecap="round" stroke-linejoin="round" stroke-width="1.2"/>
      <path id="패스_39139" data-name="패스 39139" d="M37.537,8.441s1.518-1.518,2.692-1.587" transform="translate(-12.65 -2.31)" fill="none" stroke="#000" stroke-linecap="round" stroke-linejoin="round" stroke-width="1.2"/>
      <path id="패스_39140" data-name="패스 39140" d="M42.466,10.728s1.313-1.7,2.468-1.917" transform="translate(-14.311 -2.97)" fill="none" stroke="#000" stroke-linecap="round" stroke-linejoin="round" stroke-width="1.2"/>
      <path id="패스_39141" data-name="패스 39141" d="M10.891,4.734s2.175,4.351,2.8,12.121" transform="translate(-3.67 -1.596)" fill="none" stroke="#000" stroke-linecap="round" stroke-linejoin="round" stroke-width="1.2"/>
    </g>
  </g>
</svg>
