<svg xmlns="http://www.w3.org/2000/svg" width="70" height="70" viewBox="0 0 70 70">
  <g id="cate_ic03" transform="translate(16.549 21.549)">
    <rect id="사각형_16829" data-name="사각형 16829" width="70" height="70" transform="translate(-16.549 -21.549)" fill="none"/>
    <g id="그룹_37351" data-name="그룹 37351">
      <path id="패스_39064" data-name="패스 39064" d="M36.249,4.965H9.159L10.29,1H35.2Z" transform="translate(-4.132 -0.549)" fill="none" stroke="#000" stroke-linecap="round" stroke-linejoin="round" stroke-width="1.2"/>
      <path id="패스_39065" data-name="패스 39065" d="M7.719,13.929s6.977-.087,7.974-5.082" transform="translate(-3.5 -3.996)" fill="none" stroke="#000" stroke-linecap="round" stroke-linejoin="round" stroke-width="1.2"/>
      <line id="선_218" data-name="선 218" x2="14.924" y2="1.249" transform="translate(2.116 20.361)" fill="none" stroke="#000" stroke-linecap="round" stroke-linejoin="round" stroke-width="1.2"/>
      <path id="패스_39066" data-name="패스 39066" d="M32.665,8.07l4.523,21.29L21.156,30.784,19.67,22.775c-.113-.64-1.379-.64-1.493,0l-1.292,8.009L1,29.36,5.576,8.07" transform="translate(-0.549 -3.654)" fill="none" stroke="#000" stroke-linecap="round" stroke-linejoin="round" stroke-width="1.2"/>
      <path id="패스_39067" data-name="패스 39067" d="M52.606,13.929s-7.009-.087-8.012-5.082" transform="translate(-19.696 -3.996)" fill="none" stroke="#000" stroke-linecap="round" stroke-linejoin="round" stroke-width="1.2"/>
      <line id="선_219" data-name="선 219" x1="15.246" y2="1.249" transform="translate(19.816 20.361)" fill="none" stroke="#000" stroke-linecap="round" stroke-linejoin="round" stroke-width="1.2"/>
      <line id="선_220" data-name="선 220" y1="3.592" transform="translate(14.909 0.733)" fill="none" stroke="#000" stroke-linecap="round" stroke-linejoin="round" stroke-width="1.2"/>
      <line id="선_221" data-name="선 221" y2="3.68" transform="translate(22.27 0.646)" fill="none" stroke="#000" stroke-linecap="round" stroke-linejoin="round" stroke-width="1.2"/>
      <line id="선_222" data-name="선 222" x1="0.46" y2="14.59" transform="translate(17.631 4.458)" fill="none" stroke="#000" stroke-linecap="round" stroke-linejoin="round" stroke-width="1.2"/>
      <path id="패스_39068" data-name="패스 39068" d="M34.558,8.535v7.36H32.1" transform="translate(-14.21 -3.858)" fill="none" stroke="#000" stroke-linecap="round" stroke-linejoin="round" stroke-width="1.2"/>
    </g>
  </g>
</svg>
