<svg id="cate_ic_store" xmlns="http://www.w3.org/2000/svg" xmlns:xlink="http://www.w3.org/1999/xlink" width="70" height="70" viewBox="0 0 70 70">
  <defs>
    <clipPath id="clip-path">
      <rect id="사각형_16826" data-name="사각형 16826" width="45.148" height="19.383" fill="#ff6192" stroke="#ff6192" stroke-width="0.5"/>
    </clipPath>
  </defs>
  <rect id="사각형_16776" data-name="사각형 16776" width="70" height="70"/>
  <g id="그룹_37333" data-name="그룹 37333" transform="translate(12 25)">
    <g id="그룹_37330" data-name="그룹 37330" clip-path="url(#clip-path)">
      <path id="패스_39099" data-name="패스 39099" d="M6.178.036,7,.121c.245.026.492.041.735.079a4.6,4.6,0,0,1,2.544,1.055,2.352,2.352,0,0,1,.69,2.426A3.291,3.291,0,0,1,9.93,5.3a6.627,6.627,0,0,1-1.394.985c-.749.421-1.506.828-2.258,1.264.051-.006.1-.009.153-.019.314-.061.627-.128.943-.181A2.285,2.285,0,0,1,7.72,7.34H8.749a9.963,9.963,0,0,1,1.487.236,6.691,6.691,0,0,1,1.925.789A5.05,5.05,0,0,1,14.18,10.6a4.968,4.968,0,0,1,.325,1.132,5.646,5.646,0,0,1,.068,1.377A5.44,5.44,0,0,1,12.815,17a7.3,7.3,0,0,1-1.767,1.154,10.933,10.933,0,0,1-2.406.812c-.352.077-.715.1-1.066.183-.289.066-.583.066-.872.115l-.412.038-.076,0-.4.006-.295.027-.079.012c-.027,0-.054-.007-.081-.007l-5.346,0c0-.067-.012-.135-.012-.2Q0,9.677,0,.212V.018A.752.752,0,0,1,.115,0L5.4,0l.781.033M2.584.372,2.554.41c0,.054-.005.108-.005.163q0,4.751,0,9.5c0,.054,0,.109,0,.163v.094l.022,0,.045-.1a5.447,5.447,0,0,1,1.6-1.824c.5-.369,1.007-.714,1.505-1.08S6.736,6.623,7.2,6.217a3.576,3.576,0,0,0,1.266-2.9c0-.14-.047-.28-.044-.419a2.11,2.11,0,0,0-.242-.905A2.411,2.411,0,0,0,7.041.812,3.829,3.829,0,0,0,5.319.406,1.008,1.008,0,0,0,5.13.368c-.326,0-.652,0-.978,0L2.584.372m0,10.724-.018.045c-.005.067-.016.134-.016.2q0,3.679,0,7.359v.189H5.4l.332-.033a1.44,1.44,0,0,0,.224-.006c.432-.077.867-.133,1.3-.236a7.776,7.776,0,0,0,1.848-.667A5.521,5.521,0,0,0,11.878,14.8a6.213,6.213,0,0,0,.3-1.3,6.08,6.08,0,0,0-.119-2.208,4.013,4.013,0,0,0-.4-1.047A4.8,4.8,0,0,0,7.579,7.837a5.167,5.167,0,0,0-1.292.074,4.08,4.08,0,0,0-1.915.822,5.5,5.5,0,0,0-1.729,2.178c-.025.06-.042.123-.062.185" transform="translate(0)" fill="#ff6192" stroke="#ff6192" stroke-width="0.5"/>
      <path id="패스_39100" data-name="패스 39100" d="M377.468,18.882a11.918,11.918,0,0,0,1.176-.225,5.347,5.347,0,0,0,2.827-1.846,4.342,4.342,0,0,0,.813-1.735c.029-.131.091-.255.116-.386.05-.268.074-.541.127-.808a10.9,10.9,0,0,0,.126-2.146q0-5.692,0-11.384c0-.081,0-.163.005-.245l.031-.035h.419V.28q0,5.945,0,11.89c0,.393-.017.787-.056,1.178a9.406,9.406,0,0,1-.239,1.474,6.327,6.327,0,0,1-1.374,2.685,5.433,5.433,0,0,1-2.527,1.6c-.372.111-.759.173-1.14.256a.453.453,0,0,1-.1,0l-.451.039h-1.1l-.495-.037a6.409,6.409,0,0,1-1.191-.164,7.178,7.178,0,0,1-2.781-1.161,5.068,5.068,0,0,1-1.721-2.078,6.53,6.53,0,0,1-.423-1.384,7.551,7.551,0,0,1-.133-1.554q0-6.4,0-12.791V.079h2.548V.309q0,6.273,0,12.546c0,.374,0,.749.035,1.12a7.278,7.278,0,0,0,.159.863,6.032,6.032,0,0,0,1.26,2.64,3.872,3.872,0,0,0,2.279,1.318,2.072,2.072,0,0,0,.618.084l.9.032.292-.031" transform="translate(-337.962 -0.066)" fill="#ff6192" stroke="#ff6192" stroke-width="0.5"/>
      <path id="패스_39101" data-name="패스 39101" d="M209,18.554a2.043,2.043,0,0,0,.847-.466c.12-.1.229-.213.351-.311a.158.158,0,0,1,.14-.027c.068.044.035.113-.011.156-.2.186-.391.379-.6.548a4.366,4.366,0,0,1-1.654.842c-.123.031-.249.048-.374.071h-.578a1.782,1.782,0,0,1-1.5-1.39,3.452,3.452,0,0,1-.117-.9c-.008-.292,0-.585,0-.877q0-7.925,0-15.85c0-.081,0-.163.005-.245l.031-.036h2.487l.032.034c0,.081.006.163.006.244q0,8.226,0,16.452c0,.217-.014.436.007.652a2.024,2.024,0,0,0,.209.777.6.6,0,0,0,.4.325.339.339,0,0,0,.332,0" transform="translate(-188.017 -0.065)" fill="#ff6192" stroke="#ff6192" stroke-width="0.5"/>
      <path id="패스_39102" data-name="패스 39102" d="M293.242,78.992a1.462,1.462,0,0,1-.771-.308,1.732,1.732,0,0,1-.6-.754,2.488,2.488,0,0,1-.216-.935c0-.176-.011-.353-.011-.53q0-5.492,0-10.984c0-.081.007-.162.011-.243l2.526,0c0,.081.01.162.01.243q0,5.513,0,11.025a7.838,7.838,0,0,0,.076.932,1.344,1.344,0,0,0,.119.365.621.621,0,0,0,.406.372.4.4,0,0,0,.369,0,2.63,2.63,0,0,0,1.07-.681.908.908,0,0,1,.136-.122.117.117,0,0,1,.109,0,.118.118,0,0,1,.017.108.363.363,0,0,1-.087.111,4.92,4.92,0,0,1-2.059,1.29c-.159.049-.326.072-.489.106h-.617" transform="translate(-266.835 -59.69)" fill="#ff6192" stroke="#ff6192" stroke-width="0.5"/>
      <path id="패스_39103" data-name="패스 39103" d="M292.966,2.29a1.279,1.279,0,0,1,1.147,1.38,1.32,1.32,0,0,1-1.286,1.17,1.338,1.338,0,0,1-1.267-1.183,1.29,1.29,0,0,1,1.156-1.368h.25" transform="translate(-266.759 -2.094)" fill="#ff6192" stroke="#ff6192" stroke-width="0.5"/>
      <path id="패스_39104" data-name="패스 39104" d="M.152,227.388l5.346,0c.027,0,.054,0,.081.007a1.14,1.14,0,0,1-.194.033q-2.521,0-5.042,0a.966.966,0,0,1-.19-.038" transform="translate(-0.139 -208.045)" fill="#ff6192" stroke="#ff6192" stroke-width="0.5"/>
      <path id="패스_39105" data-name="패스 39105" d="M294.307,64.8l-2.526,0a.417.417,0,0,1,.12-.039q1.144,0,2.288,0a.394.394,0,0,1,.118.04" transform="translate(-266.963 -59.251)" fill="#ff6192" stroke="#ff6192" stroke-width="0.5"/>
      <path id="패스_39106" data-name="패스 39106" d="M91.791,85.8H90.762a2.939,2.939,0,0,1,1.029,0" transform="translate(-83.042 -78.464)" fill="#ff6192" stroke="#ff6192" stroke-width="0.5"/>
      <path id="패스_39107" data-name="패스 39107" d="M451.41,221.23l-.9-.033.9,0c0,.009-.006.019-.009.028" transform="translate(-412.196 -202.383)" fill="#ff6192" stroke="#ff6192" stroke-width="0.5"/>
      <path id="패스_39108" data-name="패스 39108" d="M64.231.061,63.45.028l.781.033" transform="translate(-58.053 -0.026)" fill="#ff6192" stroke="#ff6192" stroke-width="0.5"/>
      <path id="패스_39109" data-name="패스 39109" d="M310.462,226.934h.617a1.036,1.036,0,0,1-.617,0" transform="translate(-284.055 -207.632)" fill="#ff6192" stroke="#ff6192" stroke-width="0.5"/>
      <path id="패스_39110" data-name="패스 39110" d="M224.6,226.939h.578a.931.931,0,0,1-.578,0" transform="translate(-205.493 -207.636)" fill="#ff6192" stroke="#ff6192" stroke-width="0.5"/>
      <path id="패스_39111" data-name="패스 39111" d="M442.845,226.927l.495.037-.495-.037" transform="translate(-405.178 -207.626)" fill="#ff6192" stroke="#ff6192" stroke-width="0.5"/>
      <path id="패스_39112" data-name="패스 39112" d="M461.539,226.941l.451-.039-.451.039" transform="translate(-422.282 -207.603)" fill="#ff6192" stroke="#ff6192" stroke-width="0.5"/>
      <path id="패스_39113" data-name="패스 39113" d="M73.98,226.472l.412-.038-.412.038" transform="translate(-67.688 -207.174)" fill="#ff6192" stroke="#ff6192" stroke-width="0.5"/>
      <path id="패스_39114" data-name="패스 39114" d="M68.227,226.939l.4-.006-.414.034.011-.028" transform="translate(-62.414 -207.631)" fill="#ff6192" stroke="#ff6192" stroke-width="0.5"/>
      <path id="패스_39115" data-name="패스 39115" d="M329.063,217.346a.4.4,0,0,1-.369,0l.369,0" transform="translate(-300.737 -198.859)" fill="#ff6192" stroke="#ff6192" stroke-width="0.5"/>
      <path id="패스_39116" data-name="패스 39116" d="M243.156,217.377a.339.339,0,0,1-.332,0h.332" transform="translate(-222.17 -198.888)" fill="#ff6192" stroke="#ff6192" stroke-width="0.5"/>
      <path id="패스_39117" data-name="패스 39117" d="M461.039,221.249l.009-.028.283,0-.291.031" transform="translate(-421.825 -202.402)" fill="#ff6192" stroke="#ff6192" stroke-width="0.5"/>
      <path id="패스_39118" data-name="패스 39118" d="M65.175,227.007l-.011.028H64.88l.295-.027" transform="translate(-59.362 -207.699)" fill="#ff6192" stroke="#ff6192" stroke-width="0.5"/>
      <path id="패스_39119" data-name="패스 39119" d="M305.432,1.873h-.25a.219.219,0,0,1,.25,0" transform="translate(-279.225 -1.677)" fill="#ff6192" stroke="#ff6192" stroke-width="0.5"/>
      <path id="패스_39120" data-name="패스 39120" d="M235.209.109l-.032-.034.032.034" transform="translate(-215.174 -0.069)" fill="#ff6192" stroke="#ff6192" stroke-width="0.5"/>
      <path id="패스_39121" data-name="패스 39121" d="M205.606.071l-.031.036.031-.036" transform="translate(-188.09 -0.065)" fill="#ff6192" stroke="#ff6192" stroke-width="0.5"/>
      <path id="패스_39124" data-name="패스 39124" d="M33.111,4.326l-2.732,0a.174.174,0,0,1,0-.036l1.569-.008c.326,0,.652,0,.978,0a1.011,1.011,0,0,1,.188.038" transform="translate(-27.792 -3.919)" fill="#ff6192" stroke="#ff6192" stroke-width="0.5"/>
      <path id="패스_39125" data-name="패스 39125" d="M63.429,221.732l.332-.033-.332.033" transform="translate(-58.034 -202.842)" fill="#ff6192" stroke="#ff6192" stroke-width="0.5"/>
      <path id="패스_39126" data-name="패스 39126" d="M30.015,120.379l.067,0-.045.1-.022,0Z" transform="translate(-27.462 -110.14)" fill="#ff6192" stroke="#ff6192" stroke-width="0.5"/>
      <path id="패스_39127" data-name="패스 39127" d="M30.052,4.379a.169.169,0,0,0,0,.036l-.017,0-.017,0,.03-.038" transform="translate(-27.468 -4.007)" fill="#ff6192" stroke="#ff6192" stroke-width="0.5"/>
      <path id="패스_39128" data-name="패스 39128" d="M30.166,130.465l-.018.045.018-.045" transform="translate(-27.584 -119.368)" fill="#ff6192" stroke="#ff6192" stroke-width="0.5"/>
    </g>
  </g>
</svg>
