<svg xmlns="http://www.w3.org/2000/svg" width="46" height="46" viewBox="0 0 46 46">
  <g id="like_lg_off" transform="translate(-193 -1)">
    <rect id="사각형_16783" data-name="사각형 16783" width="46" height="46" transform="translate(193 1)" fill="none"/>
    <path id="favorite_24dp_FILL0_wght200_GRAD0_opsz24" d="M131.533-794.166a2.122,2.122,0,0,1-.742-.136,1.775,1.775,0,0,1-.646-.415l-1.474-1.331a81.529,81.529,0,0,1-6.05-6.057A9.135,9.135,0,0,1,120-808.221a5.588,5.588,0,0,1,1.665-4.114A5.588,5.588,0,0,1,125.779-814a6.909,6.909,0,0,1,2.926.71,7.376,7.376,0,0,1,2.853,2.678,7.376,7.376,0,0,1,2.853-2.678,6.909,6.909,0,0,1,2.926-.71,5.588,5.588,0,0,1,4.114,1.665,5.588,5.588,0,0,1,1.665,4.114,9.215,9.215,0,0,1-2.729,6.243q-2.729,3-5.974,5.937l-1.467,1.324a1.756,1.756,0,0,1-.658.415A2.226,2.226,0,0,1,131.533-794.166Zm-.6-15.112a8.129,8.129,0,0,0-2.4-2.649,5.039,5.039,0,0,0-2.754-.789,4.356,4.356,0,0,0-3.211,1.284,4.356,4.356,0,0,0-1.284,3.211,6.134,6.134,0,0,0,.805,2.918,17.188,17.188,0,0,0,2.162,3.064,41.62,41.62,0,0,0,3.119,3.208q1.762,1.64,3.669,3.376a.755.755,0,0,0,.518.2.755.755,0,0,0,.518-.2q1.907-1.736,3.669-3.376a41.617,41.617,0,0,0,3.119-3.208,17.188,17.188,0,0,0,2.162-3.064,6.134,6.134,0,0,0,.805-2.918,4.356,4.356,0,0,0-1.284-3.211,4.356,4.356,0,0,0-3.211-1.284,5.039,5.039,0,0,0-2.754.789,8.129,8.129,0,0,0-2.4,2.649.651.651,0,0,1-.274.259.779.779,0,0,1-.353.087.779.779,0,0,1-.353-.087A.651.651,0,0,1,130.931-809.278ZM131.558-804.05Z" transform="translate(85 828)"/>
  </g>
</svg>
